HIERARCHY
ROOT Hips
{
     OFFSET 1.88212 96.90440 -13.34250
     CHANNELS 6 Xposition Yposition Zposition Zrotation Xrotation Yrotation
     JOINT Spine
     {
          OFFSET 0.00000 11.89050 0.00000
          CHANNELS 3 Zrotation Xrotation Yrotation
          JOINT Spine1
          {
               OFFSET -0.00000 25.65740 0.12766
               CHANNELS 3 Zrotation Xrotation Yrotation
               JOINT HEad
               {
                    OFFSET 0.00000 8.73416 0.01134
                    CHANNELS 3 Zrotation Xrotation Yrotation
                    End Site
                    {
                         OFFSET -0.29000 12.77420 2.51395
                    }
               }
               JOINT LeftShoulder1
               {
                    OFFSET 8.99000 -0.36225 -0.22000
                    CHANNELS 3 Zrotation Xrotation Yrotation
                    JOINT LeftArm
                    {
                         OFFSET 10.28270 -0.00338 0.32212
                         CHANNELS 3 Zrotation Xrotation Yrotation
                         JOINT LeftForeArm
                         {
                              OFFSET 32.76690 0.09914 -1.42434
                              CHANNELS 3 Zrotation Xrotation Yrotation
                              JOINT LeftHand
                              {
                                   OFFSET 27.56430 0.08536 1.02216
                                   CHANNELS 3 Zrotation Xrotation Yrotation
                                   End Site
                                   {
                                        OFFSET 16.74430 -0.60000 1.50291
                                   }
                              }
                         }
                    }
               }
               JOINT RightShoulder
               {
                    OFFSET -8.99000 -0.36225 -0.22000
                    CHANNELS 3 Zrotation Xrotation Yrotation
                    JOINT RightArm
                    {
                         OFFSET -10.28270 -0.00338 0.32212
                         CHANNELS 3 Zrotation Xrotation Yrotation
                         JOINT RightForeArm
                         {
                              OFFSET -32.89710 0.09914 -1.42434
                              CHANNELS 3 Zrotation Xrotation Yrotation
                              JOINT RightHand
                              {
                                   OFFSET -27.49210 0.08536 1.02216
                                   CHANNELS 3 Zrotation Xrotation Yrotation
                                   End Site
                                   {
                                        OFFSET -16.63120 -0.60000 1.50291
                                   }
                              }
                         }
                    }
               }
          }
     }
     JOINT LeftUpLeg
     {
          OFFSET 8.94580 -8.66707 0.10165
          CHANNELS 3 Zrotation Xrotation Yrotation
          JOINT LeftLeg
          {
               OFFSET 0.00000 -44.42270 1.37270
               CHANNELS 3 Zrotation Xrotation Yrotation
               JOINT LeftFoot
               {
                    OFFSET -0.25355 -42.09240 -1.46059
                    CHANNELS 3 Zrotation Xrotation Yrotation
                    JOINT LeftToes
                    {
                         OFFSET -0.04000 -4.41509 8.49910
                         CHANNELS 3 Zrotation Xrotation Yrotation
                         End Site
                         {
                              OFFSET 0.08000 -0.04745 9.77979
                         }
                    }
               }
          }
     }
     JOINT RightUpLeg
     {
          OFFSET -8.94580 -8.66707 0.10165
          CHANNELS 3 Zrotation Xrotation Yrotation
          JOINT RightLeg
          {
               OFFSET 0.00000 -44.42270 1.37270
               CHANNELS 3 Zrotation Xrotation Yrotation
               JOINT RightFoot
               {
                    OFFSET 0.25355 -42.09240 -1.46059
                    CHANNELS 3 Zrotation Xrotation Yrotation
                    JOINT RightToes
                    {
                         OFFSET 0.04000 -4.41509 8.49910
                         CHANNELS 3 Zrotation Xrotation Yrotation
                         End Site
                         {
                              OFFSET -0.08000 -0.13745 9.77979
                         }
                    }
               }
          }
     }
}
MOTION
Frames: 14
Frame Time: 0.01667
51.54556 81.72866 -5.07902 5.97626 1.61552 127.79102 -2.95346 14.61479 -6.52639 0.00787 0.00882 0.01815 -11.11557 13.43509 41.47449 -4.16137 2.83011 -0.07950 9.77366 -44.38450 0.23702 2.38986 10.98263 -73.38413 9.27935 -7.08218 -1.41275 14.64588 3.84765 3.89111 40.11354 -12.47287 74.08041 19.11810 34.30994 99.59589 -4.73708 16.49972 -7.67676 21.46691 -23.12319 -19.06669 -0.62735 36.79050 29.84023 -6.27853 0.00580 -0.00397 -15.87400 2.61046 1.27723 -26.72479 1.86692 4.36048 4.56305 28.20948 -12.14361 23.43043 0.00529 0.00904 -3.16286 -7.26158 -7.73994 
51.42741 82.59163 -6.38724 5.71245 1.20173 126.61729 -4.21301 13.96990 -8.71961 0.00778 0.00665 0.02249 -11.15640 13.29953 44.23964 -3.65798 2.81716 2.24010 10.12906 -33.88915 -5.06936 6.32182 1.88635 -63.69161 1.95614 13.44309 12.35261 15.64293 4.70938 6.30297 40.05703 -15.50663 73.17159 20.25946 35.74791 100.15965 -12.03671 12.74430 -1.09487 21.19084 -19.01127 -24.83364 -0.51576 30.77746 31.09116 -6.37358 -0.01150 0.00588 -17.15205 2.45099 6.16271 -27.68847 1.50976 3.26962 5.37933 27.90899 -11.12527 24.48632 0.01618 0.00332 -3.72378 -4.89914 -7.51100 
51.23613 83.19749 -7.75143 5.52291 0.78156 125.37695 -5.32664 13.39698 -10.49509 0.00733 0.00572 0.02116 -11.20966 13.13176 46.61390 -3.02112 2.88473 4.45403 10.62153 -22.82744 -10.14014 10.26471 -7.56534 -53.67735 9.76688 2.78615 9.31575 16.39819 5.51433 8.27654 40.35637 -17.27671 72.70825 20.55649 36.82931 100.34609 -6.98592 13.81129 -4.58997 20.82240 -15.40325 -29.86339 -0.32549 26.11347 32.72616 -6.01795 0.00297 -0.01331 -21.42356 -8.39718 -4.11057 -28.86990 0.24850 1.33256 8.50110 30.57752 -10.11575 22.82743 -0.03178 -0.02054 -3.65875 -8.84946 -5.80757 
50.94019 83.59491 -9.21386 5.41626 0.39826 124.07790 -6.33262 12.90101 -11.85157 0.00709 0.00536 0.02015 -11.26017 12.96421 48.59734 -2.34885 3.05294 6.63472 11.38912 -11.86086 -15.51015 15.09624 -16.78332 -42.64808 3.92795 8.22015 8.13310 16.93360 6.27380 9.87957 40.86041 -18.43666 72.44893 20.53030 37.48940 100.46673 -11.08535 11.59183 -0.55973 20.42844 -12.35452 -34.11831 0.05074 22.59463 34.38708 -5.52265 0.00786 -0.01271 -19.66747 -4.68685 6.82517 -30.28993 -1.82809 -1.38903 13.07568 35.41278 -9.07354 20.61587 -0.05898 -0.05511 -3.76839 -12.35622 -4.65522 
50.52581 83.85523 -10.76121 5.37242 0.08909 122.73499 -7.26696 12.48262 -12.80366 0.00761 0.00703 0.02018 -11.30096 12.80620 50.18778 -1.58674 3.31271 8.40249 12.11227 -5.10172 -18.00795 18.89974 -22.94781 -34.94993 8.09076 2.18951 5.92648 17.41796 7.01595 11.24112 41.34983 -19.28549 72.14512 20.26100 37.97928 100.58864 -7.96814 11.94489 -2.57371 20.14242 -10.44435 -36.47747 0.20713 20.49431 34.87532 -4.82140 0.01441 -0.01020 -28.66333 -19.71623 -7.06045 -31.86849 -4.51091 -4.86577 16.43677 40.30482 -7.23495 18.70067 -0.04451 -0.03397 -3.84579 -15.93412 -3.88011 
50.00211 84.05083 -12.35450 5.36505 -0.12594 121.38149 -8.15803 12.14027 -13.38045 0.00785 0.00841 0.02102 -11.31223 12.66604 51.37605 -0.99060 3.61184 9.75768 10.69783 -5.19648 -18.90326 19.83251 -28.07868 -31.26046 3.19524 10.12849 2.74358 17.85505 7.73958 12.44532 41.77797 -20.06815 71.68711 19.96493 38.26948 100.84467 -10.29870 10.48532 0.04617 19.80724 -9.54580 -37.19515 -0.11715 19.70050 34.40119 -3.85636 0.01745 -0.00565 -23.82267 -14.16552 3.86839 -33.18392 -6.95669 -8.02164 18.99293 44.54209 -5.63331 17.30456 -0.02895 -0.01631 -4.09405 -18.52355 -3.34149 
49.40117 84.21080 -13.93047 5.36034 -0.24389 120.05054 -9.02808 11.86263 -13.60661 0.00808 0.00926 0.02256 -11.27000 12.55003 52.14857 -0.56731 3.90383 10.83904 7.96074 -9.66705 -18.44222 17.19108 -32.00883 -33.91903 7.48491 -4.42830 -2.84872 18.33160 8.45269 13.57170 42.06981 -20.84885 70.97279 19.61270 38.50741 101.22803 -8.34257 10.39548 -0.97069 19.44563 -9.50427 -36.45366 -0.97730 20.05748 33.08862 -2.68783 0.01509 0.00048 -26.59328 -19.44415 1.09339 -34.31462 -9.04254 -10.85285 19.55471 48.12723 -3.18175 16.73857 0.00342 -0.01333 -4.17657 -21.12775 -2.74850 
48.76086 84.33449 -15.43410 5.32813 -0.27038 118.77672 -9.89192 11.63746 -13.51043 0.00780 0.00975 0.02390 -11.15238 12.46451 52.50066 -0.25757 4.16445 11.74789 4.44295 -16.98271 -17.25521 13.54782 -30.01130 -39.44644 3.48772 12.95529 0.29762 18.80200 9.12589 14.62081 42.28182 -21.65395 70.03305 19.28980 38.66412 101.76816 -9.62737 9.37698 0.78521 19.15048 -10.18067 -34.39938 -2.31920 21.44601 31.05046 -1.31246 0.01281 0.00931 -26.59397 -19.54201 3.45249 -35.23594 -10.68861 -13.34829 18.09842 50.68159 0.42272 16.93922 0.00871 -0.00609 -4.26564 -23.23046 -2.25147 
48.11060 84.42509 -16.84425 5.24950 -0.21820 117.59414 -10.74915 11.45561 -13.12494 0.00684 0.01010 0.02479 -10.94874 12.41482 52.43989 0.04865 4.38956 12.56327 0.51618 -26.20761 -15.67960 9.62717 -24.17866 -46.61108 -0.27584 -10.95086 -12.92606 19.24027 9.72670 15.59898 42.46427 -22.43649 68.92599 18.97875 38.80474 102.38155 -8.27887 9.16181 0.38157 19.00068 -11.43731 -31.17401 -3.98449 23.75045 28.39154 0.29756 0.00993 0.01958 -28.58774 -22.65078 2.09542 -35.86097 -11.87881 -15.48580 15.12619 52.03373 4.86937 17.62470 0.00832 -0.00569 -4.57769 -24.97783 -2.21183 
47.46671 84.49809 -18.17443 5.12251 -0.11362 116.53230 -11.58640 11.31103 -12.48174 0.00574 0.00983 0.02501 -10.64950 12.40859 51.98610 0.36087 4.56768 13.34035 -3.51301 -36.71579 -13.61839 1.71874 -16.06828 -58.86100 0.95053 7.14121 -11.43394 19.58688 10.20955 16.48237 42.69135 -23.17149 67.76129 18.74890 38.89466 103.01504 -8.86015 8.51017 1.56817 19.05053 -13.11707 -26.91017 -5.73612 26.83474 25.20373 2.21918 0.00801 0.03169 -30.09356 -24.49574 1.55532 -36.12601 -12.63627 -17.25134 11.30416 52.19732 9.57663 18.58634 0.00655 -0.00790 -5.16154 -26.26870 -2.68436 
46.83828 84.59151 -19.43594 4.96414 0.01377 115.61933 -12.26965 11.67849 -10.43040 0.00481 0.04714 0.11860 -9.96877 12.15983 49.76782 0.82106 4.16523 12.54233 -7.09939 -47.92131 -10.82500 -3.66638 -5.22792 -67.91002 2.81935 1.74649 -6.56386 20.01576 9.61859 16.06397 43.02044 -23.74272 66.71589 18.58754 38.98552 103.63706 -7.80724 8.41196 1.46605 19.32698 -15.03382 -21.73363 -7.26269 30.51381 21.52228 4.51745 0.00645 0.04428 -32.31367 -27.03995 -0.15043 -35.18216 -12.82808 -17.68721 7.16912 50.75730 13.00135 19.82334 0.00444 -0.01179 -5.87346 -26.97255 -3.73681 
46.23148 84.74146 -20.64235 4.76295 0.11617 114.87708 -12.62525 12.24807 -6.88127 0.00120 0.04117 0.10531 -9.17523 11.94991 45.93200 1.22329 3.50011 10.10672 -9.65721 -59.31537 -6.73087 -7.35056 6.86181 -75.17452 2.35609 10.34092 -6.49990 20.26725 8.25639 14.22437 43.48153 -24.12623 65.89427 18.51574 39.08142 104.26874 -7.96153 8.11999 2.19620 19.82197 -17.01058 -15.75087 -8.17907 34.52132 17.28960 7.22411 0.00527 0.05479 -34.56136 -29.08050 -1.80196 -33.33604 -12.55676 -16.96138 3.12564 48.10984 14.88331 21.34462 0.00290 -0.01686 -6.46266 -26.95088 -5.17596 
45.64937 84.97438 -21.81070 4.55933 0.17021 114.31829 -12.95324 13.12690 -2.42969 -0.00154 0.03280 0.09270 -8.11575 11.57531 41.04785 1.89139 2.49489 6.70821 -9.42353 -70.22390 0.63976 -14.53492 20.73880 -82.65232 5.45641 10.39882 -1.64446 20.48932 6.24840 11.49494 44.05497 -24.35399 65.31271 18.51818 39.22702 104.93485 -7.16445 8.23146 2.10686 20.54696 -18.82760 -9.06393 -7.76492 38.51651 12.09679 9.88377 0.00382 0.04867 -36.95314 -30.92930 -3.71892 -30.87498 -11.85764 -15.21275 -0.66571 44.67148 15.16778 23.11279 0.00225 -0.02245 -6.69826 -26.20304 -6.74307 
45.10509 85.30513 -22.95590 4.37636 0.16457 113.94859 -13.26383 13.84480 1.49068 -0.00139 -0.00646 -0.01582 -7.15074 11.29793 36.76163 2.68565 1.65827 3.87405 1.37521 -79.31015 19.29805 -18.86619 33.47145 -88.35885 5.63138 16.77637 -0.95395 20.47076 4.60868 9.22370 44.71936 -24.54715 64.93166 18.64294 39.39762 105.59327 -7.17610 8.21446 2.42238 21.36340 -20.24948 -1.80648 -5.79393 42.01733 5.75332 12.52848 0.00184 0.04046 -39.15903 -32.25122 -5.51112 -28.06930 -10.76196 -12.56652 -4.15675 40.84333 13.91612 25.03493 0.00197 -0.02762 -6.45858 -24.86402 -8.17103 
